<?xml version="1.0" encoding="UTF-8" standalone="no"?>
<!-- Created with Inkscape (http://www.inkscape.org/) -->

<svg
   version="1.1"
   id="svg212"
   width="164.66971"
   height="285.16901"
   viewBox="0 0 164.66971 285.169"
   xmlns="http://www.w3.org/2000/svg"
   xmlns:svg="http://www.w3.org/2000/svg">
  <defs
     id="defs216" />
  <g
     id="g218"
     transform="translate(-156.37509,-113.5386)">
    <path
       style="display:inline;fill:#0099cc;fill-opacity:1;stroke:none;stroke-width:14.569;stroke-dasharray:none;stroke-opacity:1"
       d="m 310.37788,395.62444 c 6.43061,-3.7686 9.8981,-9.29166 10.42738,-16.6089 0.80196,-11.08708 2.87375,-8.59054 -56.6511,-68.26554 L 209.54192,256 264.15416,201.25 c 59.62464,-59.77504 57.57252,-57.29945 56.57914,-68.25459 -0.62702,-6.91485 -4.06103,-12.59755 -10.06327,-16.65296 -3.59613,-2.42973 -5.1334,-2.81557 -11.17003,-2.80358 -4.73445,0.009 -8.05036,0.57929 -10.24537,1.7608 -4.238,2.28121 -128.23628,126.8134 -130.43523,130.99687 -2.6981,5.13308 -3.14317,10.08313 -1.43111,15.91661 1.48594,5.063 4.27337,8.00634 65.83168,69.51389 49.82868,49.7876 65.1793,64.56573 68.28003,65.73357 5.7946,2.18244 13.25962,1.45635 18.87788,-1.83617 z"
       id="path3890" />
  </g>
</svg>
