<?xml version="1.0" encoding="UTF-8" standalone="no"?>
<!-- Created with Inkscape (http://www.inkscape.org/) -->

<svg
   version="1.1"
   id="svg228"
   width="1838.0782"
   height="1261.676"
   viewBox="0 0 1838.0783 1261.6761"
   xmlns="http://www.w3.org/2000/svg"
   xmlns:svg="http://www.w3.org/2000/svg">
  <defs
     id="defs232" />
  <g
     id="g234"
     transform="translate(-147.3242,-435.95166)">
    <path
       id="path346"
       style="fill:#666666;fill-opacity:1;stroke-width:1.33333"
       d="m 1917.998,435.96875 c -370.4348,0.0607 -740.8697,0.0278 -1111.30464,0.0329 -201.64714,-5.4e-4 -403.29427,-10e-4 -604.94141,-0.002 -9.57529,6.45332 -20.09919,11.79308 -28.7778,19.59692 -8.83103,8.03011 -15.46558,18.1566 -20.94547,28.68343 -3.21804,5.86229 -4.01086,12.68482 -4.07133,19.27313 0.0231,32.28677 -0.01,64.57402 -0.0135,96.86097 -0.20655,345.99076 -0.41561,691.9816 -0.61965,1037.9723 5.515,10.2149 9.82404,21.201 17.07084,30.3843 10.3909,13.0305 25.07238,22.7992 41.39791,26.477 11.31939,1.7983 22.81774,1.2507 34.23122,1.5768 50.39284,0.5112 100.78877,0.5343 151.18362,0.6379 147.23038,0.1942 294.46093,0.169 441.69141,0.1575 366.3871,-0.051 732.7742,-0.1783 1099.1613,-0.2843 9.6323,-6.951 20.4825,-12.2433 29.2146,-20.4075 8.4586,-7.9716 14.7212,-17.915 20.2935,-28.0288 3.2527,-6.1921 4.0513,-13.3435 3.7869,-20.2445 -0.01,-379.7757 -0.017,-759.55137 -0.021,-1139.32703 -6.8641,-9.57216 -12.1225,-20.32145 -20.1819,-29.01098 -8.4439,-8.9865 -18.998,-15.6732 -29.8962,-21.28394 -5.4078,-2.37402 -11.3849,-3.21409 -17.2579,-3.06445 z m -851.332,155.4375 c 213.0729,0.007 426.1458,0.013 639.2188,0.0195 -33.8711,30.74055 -67.919,61.28006 -101.857,91.94513 -80.0076,72.19889 -159.948,144.47222 -239.9124,216.71901 -54.0674,48.85651 -108.0946,97.75823 -162.1831,146.59041 -23.2466,20.9665 -46.4945,41.932 -69.8313,62.7981 -9.0857,8.0144 -18.256,15.9753 -28.1158,23.0332 -4.9054,3.3244 -10.4479,5.6454 -16.196,7.0431 -7.1084,1.9066 -14.4021,3.4364 -21.7912,3.459 -5.7509,-0.1373 -11.4484,-1.1751 -17.0204,-2.5556 -8.5523,-2.207 -16.827,-5.6578 -24.2219,-10.5111 -5.9762,-4.0205 -11.0651,-9.158 -16.4494,-13.9028 -49.48285,-44.5716 -98.80378,-89.306 -148.2406,-133.92689 C 817.4713,943.59922 774.90614,905.05077 732.23044,866.62586 671.77549,812.03281 611.33887,757.41683 550.9016,702.80511 c -26.21737,-23.65707 -52.4328,-47.31676 -78.58759,-71.04199 -14.87398,-13.47358 -29.75182,-26.94028 -44.65971,-40.3764 213.0039,0.007 426.00781,0.013 639.0117,0.0195 z M 354.21875,735.39844 c 63.57621,57.48053 127.14693,114.96951 190.77517,172.39292 38.57681,34.83621 77.15638,69.66309 115.68381,104.54844 -50.09204,56.3713 -100.23321,112.6981 -150.23663,169.1471 -17.30296,19.6081 -34.80852,39.0369 -52.08481,58.6688 -5.97058,6.7309 -11.85593,13.5372 -17.81718,20.276 -3.15376,3.4877 -6.62363,6.6819 -9.68755,10.2499 -3.09992,3.7257 -5.94871,7.6647 -9.303,11.1737 -24.84153,27.6596 -49.71102,55.2926 -74.33058,83.1476 -14.50649,16.359 -29.05463,32.6837 -43.59884,49.0147 -0.24599,-94.932 -0.20274,-189.8643 -0.23972,-284.7965 -0.0151,-146.59389 -0.0303,-293.18777 -0.0454,-439.78165 16.96159,15.31966 33.92318,30.63933 50.88477,45.95899 z m 1475.45115,88.76758 c 0.064,166.6811 0.1488,333.36228 -0.069,500.04338 -0.036,29.8247 -0.073,59.6495 -0.1092,89.4742 -29.1553,-32.7774 -58.2717,-65.5876 -87.4804,-98.3174 -23.3629,-26.0482 -46.7101,-52.1122 -69.8991,-78.3142 -63.4999,-71.5177 -126.8516,-143.1688 -190.4509,-214.5971 -2.985,-3.3561 -5.9699,-6.7121 -8.9548,-10.0682 55.896,-50.47291 111.7869,-100.94928 167.6423,-151.46735 63.0279,-56.96812 126.0794,-113.91102 189.1195,-170.86662 0.067,44.70443 0.1341,89.40886 0.2011,134.11329 z m -322.625,461.75198 c 75.7515,85.2378 151.5055,170.4771 227.2676,255.707 -188.2094,0.2284 -376.419,0.2993 -564.6285,0.3138 -195.14899,0.016 -390.29802,-0.01 -585.44687,-0.2417 -61.65005,-0.079 -123.30012,-0.1612 -184.95002,-0.3221 125.73372,-141.4505 251.46745,-282.901 377.20117,-424.3516 39.77887,35.915 79.5455,71.8363 119.29433,107.7793 10.15798,9.1158 20.26473,18.3204 31.08332,26.6566 12.8787,9.882 26.77732,18.4622 41.52206,25.2701 20.37141,9.5367 42.07561,16.3188 64.33471,19.6495 20.263,2.8713 40.8613,2.7751 61.2093,0.871 19.9558,-2.1451 39.4507,-7.5632 58.1282,-14.8108 20.9343,-8.2113 40.5201,-19.735 58.1311,-33.6944 9.5943,-7.5596 18.5752,-15.8461 27.6463,-24.014 14.0849,-12.808 28.2191,-25.5188 42.3335,-38.3072 25.5947,-23.1503 51.1893,-46.3006 76.784,-69.4508 50.0299,56.3151 100.0599,112.6302 150.0898,168.9453 z" />
  </g>
</svg>
