<svg xmlns="http://www.w3.org/2000/svg" version="1.1" xmlns:xlink="http://www.w3.org/1999/xlink" width="343.67599" height="343.67599"><svg version="1.1" id="SvgjsSvg1009" width="343.67599" height="343.67599" viewBox="0 0 343.676 343.67599" xmlns="http://www.w3.org/2000/svg" xmlns:svg="http://www.w3.org/2000/svg">
  <defs id="SvgjsDefs1008"></defs>
  <g id="SvgjsG1007" transform="translate(-490.92223,-59.239628)">
    <path style="fill:#ffffff;fill-opacity:1;stroke:none;stroke-width:1px;stroke-linecap:butt;stroke-linejoin:miter;stroke-opacity:1" d="M 553.46109,155.5564 C 566.45311,113.79462 604.65483,69.248693 664.94401,69.16303 749.39719,69.043034 773.2974,155.31702 773.28218,163.55727 773.12886,246.55579 702.565,352.17504 664.86406,394.71434 612.2369,350.98275 537.93392,205.46722 553.46109,155.5564 Z" id="SvgjsPath1006"></path>
    <path id="SvgjsPath1005" style="fill:#00c1ff;fill-opacity:1;stroke-width:1.33333" d="m 659.74035,59.273438 c -24.69618,0.588051 -49.12795,8.973843 -69.00345,23.639617 -16.76172,12.303337 -30.22197,29.043855 -38.65032,48.051335 -3.94642,8.59243 -7.51744,17.51229 -8.7413,26.95212 -1.33611,9.64411 -1.10966,19.40636 -1.09989,29.11659 0.0922,8.07185 0.64694,16.19655 2.65309,24.04336 2.2915,9.40508 5.19936,18.65939 8.68738,27.68942 5.77963,14.98056 12.65326,29.51776 20.02029,43.77719 8.43325,16.28064 17.76075,32.09674 27.89911,47.37307 11.34153,17.26886 23.17472,34.21751 35.53197,50.77527 4.34419,5.75812 8.71427,11.51466 13.53472,16.88656 1.67748,1.88452 3.56291,3.8033 6.09154,4.44256 4.94103,1.63079 10.66473,1.06462 14.96414,-1.96082 3.03765,-2.13153 5.25786,-5.16724 7.62474,-7.97435 8.17255,-10.15691 15.70864,-20.80468 23.22172,-31.45257 11.21177,-16.03272 22.13488,-32.27465 32.44301,-48.90439 12.04217,-19.58626 22.70971,-40.03343 31.68013,-61.2074 5.78274,-13.75696 10.88955,-27.85523 14.24228,-42.41606 1.8767,-8.65565 2.35968,-17.54173 2.45581,-26.37564 0.006,-7.81827 -0.3914,-15.65513 -1.53779,-23.39388 -0.7884,-5.43122 -2.26533,-10.73283 -4.05331,-15.91333 -8.70644,-25.46952 -25.94134,-47.938552 -48.32392,-62.898366 -19.60371,-13.16537 -43.16708,-20.360157 -66.78839,-20.28349 -0.95062,-0.0038 -1.90104,0.02273 -2.85156,0.0332 z m 2.43164,22.519531 c 1.97805,0.01489 3.98642,0.0629 5.87581,0.173326 1.58044,0.08837 3.41231,0.23479 5.10728,0.416382 10.01312,1.055994 20.00465,3.735652 29.138,7.718885 12.84446,5.589824 24.44945,13.984068 33.80469,24.408208 0.47855,0.55105 1.17666,1.32275 1.72109,1.97549 1.67098,1.94834 3.25154,3.97294 4.76719,6.04404 0.53545,0.73655 1.22729,1.70862 1.79726,2.55195 3.61271,5.29945 6.71617,10.94512 9.25548,16.83477 0.16003,0.37638 0.46174,1.10832 0.67601,1.6208 2.2361,5.53617 4.21105,11.22542 5.24271,17.1207 0.7895,4.6996 1.12014,9.5116 1.26878,14.19209 0.0766,2.90427 0.0872,5.97883 0.003,8.94792 -0.0631,1.94077 -0.13521,3.74214 -0.26342,5.70357 -0.11286,1.68161 -0.2366,3.31431 -0.3963,4.92581 -0.0957,1.06853 -0.22441,2.09183 -0.35214,3.22498 -0.51778,4.22317 -1.27016,8.42352 -2.42452,12.52194 -4.2579,15.37934 -10.2486,30.41237 -17.10393,44.88059 -5.41599,11.4697 -11.45155,22.72687 -17.76911,33.66628 -6.24352,10.7933 -12.89277,21.51459 -19.72661,31.93939 -11.60345,17.75084 -23.9624,35.11207 -36.56831,52.0821 -1.28214,1.70103 -2.54479,3.41685 -3.85352,5.09765 -10.4132,-14.287 -20.86779,-28.60009 -30.76322,-43.21252 -5.88782,-8.66345 -11.60168,-17.31842 -17.17497,-26.18849 -6.78344,-10.78379 -13.35107,-21.86769 -19.44072,-33.03844 -9.18001,-16.94276 -17.50476,-34.42841 -23.56671,-52.74769 -2.94216,-8.95018 -5.30281,-18.11307 -6.64813,-27.44567 -0.28202,-1.95378 -0.54237,-4.11486 -0.72907,-6.15824 -0.13343,-1.49529 -0.22774,-2.91693 -0.30386,-4.46637 -0.0754,-1.6186 -0.11852,-3.5153 -0.0996,-5.24567 0.0598,-9.28385 1.67749,-18.51899 4.32926,-27.40125 3.69473,-12.24372 9.67901,-23.81543 17.69784,-33.78902 0.74561,-0.92796 1.65527,-2.0333 2.50371,-3.00104 12.44811,-14.35811 29.2253,-24.910659 47.58093,-29.847156 7.203,-1.967358 14.631,-3.088919 22.08919,-3.411565 0.48798,-0.01891 1.33311,-0.04359 1.95794,-0.06471 0.78923,-0.01693 1.57885,-0.01868 2.36823,-0.02904 z m -0.80078,54.855471 c -11.24192,0.13122 -22.37374,4.75558 -30.31966,12.72524 -8.46559,8.36531 -13.3148,20.25332 -13.07435,32.15676 0.0471,8.34964 2.40577,16.7644 7.22947,23.62945 3.68526,5.31315 8.44195,9.86134 13.79123,13.47781 5.21253,3.44945 11.28352,5.59843 17.52156,6.08805 6.98352,0.77345 14.17373,0.20211 20.80596,-2.2012 10.76391,-3.81407 19.83914,-12.04889 24.76353,-22.3433 4.90376,-10.09542 5.70213,-22.06242 2.29629,-32.74644 -3.13471,-9.97551 -9.99444,-18.70077 -18.91859,-24.14303 -7.19176,-4.42497 -15.64736,-6.78473 -24.09544,-6.64334 z"></path>
  </g>
</svg><style>@media (prefers-color-scheme: light) { :root { filter: none; } }
@media (prefers-color-scheme: dark) { :root { filter: none; } }
</style></svg>