<?xml version="1.0" encoding="UTF-8" standalone="no"?>
<!-- Created with Inkscape (http://www.inkscape.org/) -->

<svg
   width="57.588mm"
   height="9.8141mm"
   version="1.1"
   viewBox="0 0 57.588 9.8141"
   id="svg26"
   xmlns="http://www.w3.org/2000/svg"
   xmlns:svg="http://www.w3.org/2000/svg">
  <defs
     id="defs30" />
  <g
     transform="translate(-1.2167 -1.0038)"
     id="g24">
    <g
       style="fill:#ffffff;paint-order:stroke fill markers;stroke-width:1.665;stroke:#00c1ff"
       aria-label="GaliGuessr"
       id="g22">
      <path
         d="m5.2559 5.6357h2.9951v3.9158q-0.59266 0.20108-1.2382 0.31749-0.635 0.11642-1.4499 0.11642-1.6933 0-2.6035-0.99483-0.91016-0.99483-0.91016-2.8998 0-1.1853 0.45508-2.0532 0.46566-0.86783 1.3441-1.3441t2.1484-0.47625q0.60325 0 1.1853 0.127 0.58208 0.127 1.0583 0.33866l-0.52916 1.2806q-0.34925-0.17991-0.79375-0.29633-0.4445-0.11642-0.93133-0.11642-0.6985 0-1.2171 0.3175-0.508 0.3175-0.79375 0.89958-0.27516 0.5715-0.27516 1.3547 0 0.74083 0.20108 1.3123 0.20108 0.57149 0.635 0.89958 0.43392 0.3175 1.1324 0.3175 0.33867 0 0.5715-0.0318 0.24342-0.0318 0.4445-0.0741v-1.5769h-1.4287z"
         id="path2" />
      <path
         d="m 12.294,3.9847 c 0.776133,0 1.3688,0.1693333 1.778,0.508 0.41628,0.3316067 0.62442,0.84314 0.62442,1.5346 v 3.8523 h -1.1007 L 13.2888,9.09643 h -0.04233 c -0.246947,0.3104467 -0.508,0.5362233 -0.78316,0.67733 -0.275167,0.1411133 -0.652633,0.21167 -1.1324,0.21167 -0.515053,0 -0.94192,-0.1481667 -1.2806,-0.4445 -0.3386667,-0.3033867 -0.508,-0.76552 -0.508,-1.3864 0,-0.6138333 0.2151933,-1.0654 0.64558,-1.3547 0.430387,-0.2963333 1.075953,-0.45861 1.9367,-0.48683 l 1.0054,-0.0318 v -0.254 c 0,-0.3033933 -0.08114,-0.5256433 -0.24342,-0.66675 -0.15522,-0.1411133 -0.37394,-0.21167 -0.65616,-0.21167 -0.28222,0 -0.557387,0.042333 -0.8255,0.127 -0.268107,0.077613 -0.536217,0.17639 -0.80433,0.29633 L 10.082,4.50321 c 0.31044,-0.1622733 0.65264,-0.2892733 1.0266,-0.381 0.411471,-0.081631 0.830962,-0.1360696 1.1854,-0.13751 z m 0.22225,3.2385 c -0.508,0.014133 -0.860767,0.1058567 -1.0583,0.27517 -0.197553,0.1693267 -0.29633,0.3915733 -0.29633,0.66674 0,0.2398933 0.07056,0.4127567 0.21167,0.51859 0.141113,0.098773 0.324557,0.14816 0.55033,0.14816 0.338667,0 0.624417,-0.098777 0.85725,-0.29633 0.232833,-0.2046133 0.34925,-0.4903633 0.34925,-0.85725 V 7.20203 Z"
         id="path4" />
      <path
         d="m17.892 9.8796h-1.5769v-8.0433h1.5769z"
         id="path6" />
      <path
         d="m20.337 1.8363q0.34925 0 0.60325 0.16933 0.254 0.15875 0.254 0.60325 0 0.43392-0.254 0.60325-0.254 0.16933-0.60325 0.16933-0.35983 0-0.61383-0.16933-0.24342-0.16933-0.24342-0.60325 0-0.4445 0.24342-0.60325 0.254-0.16933 0.61383-0.16933zm0.78316 2.2648v5.7785h-1.5769v-5.7785z"
         id="path8" />
      <path
         d="m25.766 5.6357h2.9951v3.9158q-0.59266 0.20108-1.2382 0.31749-0.635 0.11642-1.4499 0.11642-1.6933 0-2.6035-0.99483t-0.91016-2.8998q0-1.1853 0.45508-2.0532 0.46566-0.86783 1.3441-1.3441t2.1484-0.47625q0.60325 0 1.1853 0.127 0.58208 0.127 1.0583 0.33866l-0.52916 1.2806q-0.34925-0.17991-0.79375-0.29633t-0.93133-0.11642q-0.6985 0-1.2171 0.3175-0.508 0.3175-0.79375 0.89958-0.27517 0.5715-0.27517 1.3547 0 0.74083 0.20108 1.3123 0.20108 0.57149 0.635 0.89958 0.43392 0.3175 1.1324 0.3175 0.33866 0 0.5715-0.0318 0.24342-0.0318 0.4445-0.0741v-1.5769h-1.4287z"
         id="path10" />
      <path
         d="m35.736 4.1011v5.7785h-1.2065l-0.21167-0.74083h-0.08467q-0.27517 0.4445-0.762 0.64558-0.47625 0.20108-1.016 0.20108-0.93133 0-1.4922-0.49741-0.56092-0.508-0.56092-1.6192v-3.7676h1.5769v3.3761q0 0.61383 0.22225 0.93133 0.22225 0.3175 0.70908 0.3175 0.71966 0 0.98425-0.48683 0.26458-0.49742 0.26458-1.4182v-2.7199z"
         id="path12" />
      <path
         d="m 39.768,3.9953 c 0.679682,0.00958 1.428733,0.2293067 1.8944,0.68792 0.465667,0.4515533 0.6985,1.09712 0.6985,1.9367 v 0.762 h -3.7253 c 0.01413,0.4445 0.14466,0.7937667 0.39158,1.0478 0.254,0.2539933 0.603267,0.38099 1.0478,0.38099 0.37394,0 0.712607,-0.035277 1.016,-0.10583 0.303393,-0.077607 0.617367,-0.1940233 0.94192,-0.34925 v 1.2171 c -0.28222,0.1411133 -0.58208,0.24342 -0.89958,0.30692 -0.310447,0.070553 -0.687913,0.10583 -1.1324,0.10583 -0.578553,0 -1.090087,-0.1058333 -1.5346,-0.3175 -0.4445,-0.21872 -0.793767,-0.5468 -1.0478,-0.98424 -0.254,-0.4374467 -0.381,-0.98778 -0.381,-1.651 0,-0.6773333 0.11289,-1.2382333 0.33867,-1.6827 0.232833,-0.45156 0.55386,-0.7902267 0.96308,-1.016 C 38.821148,4.0807179 39.088318,3.9857214 39.768,3.9953 Z m 0.0106,1.1218 c -0.303393,0 -0.557393,0.09878 -0.762,0.29634 -0.197553,0.1975533 -0.31397,0.5044667 -0.34925,0.92074 h 2.2119 C 40.872183,5.9814067 40.78046,5.69213 40.60408,5.46635 40.427693,5.2335167 40.15253,5.1171 39.77859,5.1171 Z"
         id="path14" />
      <path
         d="m47.674 8.1651q0 0.87842-0.62441 1.3547-0.61383 0.46566-1.8415 0.46566-0.60324 0-1.0372-0.0847-0.43391-0.0741-0.86783-0.25399v-1.3018q0.46567 0.21167 1.0054 0.34925 0.53975 0.13758 0.9525 0.13758 0.46567 0 0.65617-0.13758 0.20108-0.13758 0.20108-0.35983 0-0.14817-0.0847-0.26459-0.0741-0.11641-0.33866-0.26458-0.26459-0.14817-0.8255-0.381-0.53975-0.23283-0.889-0.45508-0.34925-0.23283-0.51858-0.55033-0.16933-0.32808-0.16933-0.81492 0-0.80433 0.62441-1.2065 0.62442-0.40217 1.6616-0.40217 0.53975 0 1.0266 0.10584 0.48683 0.10583 1.0054 0.34925l-0.47625 1.1324q-0.42333-0.17992-0.80433-0.29633-0.38099-0.127-0.77258-0.127-0.69849 0-0.69849 0.381 0 0.13758 0.0847 0.25399 0.0953 0.10584 0.34925 0.23284 0.26458 0.127 0.77258 0.33866 0.49742 0.20109 0.85725 0.42333 0.35983 0.21167 0.55033 0.53975 0.20108 0.3175 0.20108 0.83608z"
         id="path16" />
      <path
         d="m52.934 8.1651q0 0.87842-0.62442 1.3547-0.61383 0.46566-1.8415 0.46566-0.60325 0-1.0372-0.0847-0.43392-0.0741-0.86783-0.25399v-1.3018q0.46566 0.21167 1.0054 0.34925t0.9525 0.13758q0.46566 0 0.65616-0.13758 0.20108-0.13758 0.20108-0.35983 0-0.14817-0.0847-0.26459-0.0741-0.11641-0.33867-0.26458-0.26458-0.14817-0.8255-0.381-0.53974-0.23283-0.88899-0.45508-0.34925-0.23283-0.51858-0.55033-0.16934-0.32808-0.16934-0.81492 0-0.80433 0.62442-1.2065 0.62441-0.40217 1.6616-0.40217 0.53974 0 1.0266 0.10584 0.48683 0.10583 1.0054 0.34925l-0.47625 1.1324q-0.42333-0.17992-0.80433-0.29633-0.381-0.127-0.77258-0.127-0.6985 0-0.6985 0.381 0 0.13758 0.0847 0.25399 0.0953 0.10584 0.34925 0.23284 0.26458 0.127 0.77258 0.33866 0.49741 0.20109 0.85724 0.42333 0.35984 0.21167 0.55034 0.53975 0.20108 0.3175 0.20108 0.83608z"
         id="path18" />
      <path
         d="m 57.389,3.9953 c 0.249468,0.00882 0.169337,0.00353 0.27517,0.0106 0.105833,0.00707 0.1905,0.017667 0.254,0.0318 L 57.80175,5.5194 C 57.75235,5.5052667 57.678267,5.4946667 57.5795,5.4876 57.48778,5.4734667 57.406643,5.4664 57.33609,5.4664 c -0.268113,0 -0.52564,0.04939 -0.77258,0.14817 -0.246947,0.09172 -0.44803,0.2434133 -0.60325,0.45508 -0.148167,0.2116667 -0.22225,0.5009433 -0.22225,0.86783 v 2.9422 h -1.5769 v -5.7785 h 1.1959 l 0.23283,0.97366 h 0.0741 C 55.833267,4.7785067 56.066097,4.5245067 56.36243,4.31284 56.705373,4.1200654 57.068115,3.9839608 57.389,3.9953 Z"
         id="path20" />
    </g>
  </g>
</svg>
