<?xml version="1.0" encoding="UTF-8"?>
<!-- Created with Inkscape (http://www.inkscape.org/) -->
<svg width="57.588mm" height="9.8141mm" version="1.1" viewBox="0 0 57.588 9.8141" xmlns="http://www.w3.org/2000/svg">
 <g transform="translate(-1.2167 -1.0038)">
  <g style="fill:#ffffff;paint-order:stroke fill markers;stroke-width:1.665;stroke:#00c1ff" aria-label="GaliGuessr">
   <path d="m5.2559 5.6357h2.9951v3.9158q-0.59266 0.20108-1.2382 0.31749-0.635 0.11642-1.4499 0.11642-1.6933 0-2.6035-0.99483-0.91016-0.99483-0.91016-2.8998 0-1.1853 0.45508-2.0532 0.46566-0.86783 1.3441-1.3441t2.1484-0.47625q0.60325 0 1.1853 0.127 0.58208 0.127 1.0583 0.33866l-0.52916 1.2806q-0.34925-0.17991-0.79375-0.29633-0.4445-0.11642-0.93133-0.11642-0.6985 0-1.2171 0.3175-0.508 0.3175-0.79375 0.89958-0.27516 0.5715-0.27516 1.3547 0 0.74083 0.20108 1.3123 0.20108 0.57149 0.635 0.89958 0.43392 0.3175 1.1324 0.3175 0.33867 0 0.5715-0.0318 0.24342-0.0318 0.4445-0.0741v-1.5769h-1.4287z"/>
   <path d="m12.294 3.9847q1.1642 0 1.778 0.508 0.62442 0.49741 0.62442 1.5346v3.8523h-1.1007l-0.30692-0.78317h-0.04233q-0.37042 0.46567-0.78316 0.67733-0.41275 0.21167-1.1324 0.21167-0.77258 0-1.2806-0.4445-0.508-0.45508-0.508-1.3864 0-0.92075 0.64558-1.3547 0.64558-0.4445 1.9367-0.48683l1.0054-0.0318v-0.254q0-0.45509-0.24342-0.66675-0.23283-0.21167-0.65616-0.21167t-0.8255 0.127q-0.40216 0.11642-0.80433 0.29633l-0.51858-1.0689q0.46566-0.24341 1.0266-0.381 0.5715-0.13758 1.1853-0.13758zm0.22225 3.2385q-0.762 0.0212-1.0583 0.27517-0.29633 0.25399-0.29633 0.66674 0 0.35984 0.21167 0.51859 0.21167 0.14816 0.55033 0.14816 0.508 0 0.85725-0.29633 0.34925-0.30692 0.34925-0.85725v-0.47625z"/>
   <path d="m17.892 9.8796h-1.5769v-8.0433h1.5769z"/>
   <path d="m20.337 1.8363q0.34925 0 0.60325 0.16933 0.254 0.15875 0.254 0.60325 0 0.43392-0.254 0.60325-0.254 0.16933-0.60325 0.16933-0.35983 0-0.61383-0.16933-0.24342-0.16933-0.24342-0.60325 0-0.4445 0.24342-0.60325 0.254-0.16933 0.61383-0.16933zm0.78316 2.2648v5.7785h-1.5769v-5.7785z"/>
   <path d="m25.766 5.6357h2.9951v3.9158q-0.59266 0.20108-1.2382 0.31749-0.635 0.11642-1.4499 0.11642-1.6933 0-2.6035-0.99483t-0.91016-2.8998q0-1.1853 0.45508-2.0532 0.46566-0.86783 1.3441-1.3441t2.1484-0.47625q0.60325 0 1.1853 0.127 0.58208 0.127 1.0583 0.33866l-0.52916 1.2806q-0.34925-0.17991-0.79375-0.29633t-0.93133-0.11642q-0.6985 0-1.2171 0.3175-0.508 0.3175-0.79375 0.89958-0.27517 0.5715-0.27517 1.3547 0 0.74083 0.20108 1.3123 0.20108 0.57149 0.635 0.89958 0.43392 0.3175 1.1324 0.3175 0.33866 0 0.5715-0.0318 0.24342-0.0318 0.4445-0.0741v-1.5769h-1.4287z"/>
   <path d="m35.736 4.1011v5.7785h-1.2065l-0.21167-0.74083h-0.08467q-0.27517 0.4445-0.762 0.64558-0.47625 0.20108-1.016 0.20108-0.93133 0-1.4922-0.49741-0.56092-0.508-0.56092-1.6192v-3.7676h1.5769v3.3761q0 0.61383 0.22225 0.93133 0.22225 0.3175 0.70908 0.3175 0.71966 0 0.98425-0.48683 0.26458-0.49742 0.26458-1.4182v-2.7199z"/>
   <path d="m39.768 3.9953q1.1959 0 1.8944 0.68792 0.6985 0.67733 0.6985 1.9367v0.762h-3.7253q0.0212 0.66675 0.39158 1.0478 0.381 0.38099 1.0478 0.38099 0.56091 0 1.016-0.10583 0.45509-0.11641 0.94192-0.34925v1.2171q-0.42333 0.21167-0.89958 0.30692-0.46567 0.10583-1.1324 0.10583-0.86783 0-1.5346-0.3175-0.66675-0.32808-1.0478-0.98424-0.381-0.65617-0.381-1.651 0-1.016 0.33867-1.6827 0.34925-0.67734 0.96308-1.016 0.61383-0.33867 1.4287-0.33867zm0.0106 1.1218q-0.45509 0-0.762 0.29634-0.29633 0.29633-0.34925 0.92074h2.2119q-0.0106-0.52916-0.27517-0.86783-0.26458-0.34925-0.82549-0.34925z"/>
   <path d="m47.674 8.1651q0 0.87842-0.62441 1.3547-0.61383 0.46566-1.8415 0.46566-0.60324 0-1.0372-0.0847-0.43391-0.0741-0.86783-0.25399v-1.3018q0.46567 0.21167 1.0054 0.34925 0.53975 0.13758 0.9525 0.13758 0.46567 0 0.65617-0.13758 0.20108-0.13758 0.20108-0.35983 0-0.14817-0.0847-0.26459-0.0741-0.11641-0.33866-0.26458-0.26459-0.14817-0.8255-0.381-0.53975-0.23283-0.889-0.45508-0.34925-0.23283-0.51858-0.55033-0.16933-0.32808-0.16933-0.81492 0-0.80433 0.62441-1.2065 0.62442-0.40217 1.6616-0.40217 0.53975 0 1.0266 0.10584 0.48683 0.10583 1.0054 0.34925l-0.47625 1.1324q-0.42333-0.17992-0.80433-0.29633-0.38099-0.127-0.77258-0.127-0.69849 0-0.69849 0.381 0 0.13758 0.0847 0.25399 0.0953 0.10584 0.34925 0.23284 0.26458 0.127 0.77258 0.33866 0.49742 0.20109 0.85725 0.42333 0.35983 0.21167 0.55033 0.53975 0.20108 0.3175 0.20108 0.83608z"/>
   <path d="m52.934 8.1651q0 0.87842-0.62442 1.3547-0.61383 0.46566-1.8415 0.46566-0.60325 0-1.0372-0.0847-0.43392-0.0741-0.86783-0.25399v-1.3018q0.46566 0.21167 1.0054 0.34925t0.9525 0.13758q0.46566 0 0.65616-0.13758 0.20108-0.13758 0.20108-0.35983 0-0.14817-0.0847-0.26459-0.0741-0.11641-0.33867-0.26458-0.26458-0.14817-0.8255-0.381-0.53974-0.23283-0.88899-0.45508-0.34925-0.23283-0.51858-0.55033-0.16934-0.32808-0.16934-0.81492 0-0.80433 0.62442-1.2065 0.62441-0.40217 1.6616-0.40217 0.53974 0 1.0266 0.10584 0.48683 0.10583 1.0054 0.34925l-0.47625 1.1324q-0.42333-0.17992-0.80433-0.29633-0.381-0.127-0.77258-0.127-0.6985 0-0.6985 0.381 0 0.13758 0.0847 0.25399 0.0953 0.10584 0.34925 0.23284 0.26458 0.127 0.77258 0.33866 0.49741 0.20109 0.85724 0.42333 0.35984 0.21167 0.55034 0.53975 0.20108 0.3175 0.20108 0.83608z"/>
   <path d="m57.389 3.9953q0.11642 0 0.27517 0.0106t0.254 0.0318l-0.11642 1.4817q-0.0741-0.0212-0.22225-0.0318-0.13758-0.0212-0.24341-0.0212-0.40217 0-0.77258 0.14817-0.37042 0.13758-0.60325 0.45508-0.22225 0.3175-0.22225 0.86783v2.9422h-1.5769v-5.7785h1.1959l0.23283 0.97366h0.0741q0.25399-0.4445 0.69849-0.762t1.0266-0.3175z"/>
  </g>
 </g>
</svg>
