<?xml version="1.0" encoding="UTF-8" standalone="no"?>
<!-- Created with Inkscape (http://www.inkscape.org/) -->

<svg
   version="1.1"
   id="svg234"
   width="375.75677"
   height="300.23715"
   viewBox="0 0 375.75677 300.23715"
   xmlns="http://www.w3.org/2000/svg"
   xmlns:svg="http://www.w3.org/2000/svg">
  <defs
     id="defs238" />
  <g
     id="g240"
     transform="translate(-261.19915,-250.39864)">
    <path
       style="fill:#ffffff;fill-opacity:1"
       d="m 475.99353,550.12139 c -13.60385,-4.44059 -20.31827,-16.53054 -16.51969,-29.74523 1.66852,-5.8045 2.24576,-6.4341 47.33272,-51.62616 L 552.45017,423 415.97509,422.97804 C 280.76665,422.95628 279.45823,422.93714 275,420.91597 c -6.04775,-2.74179 -8.81278,-5.45766 -11.62258,-11.41597 -4.52165,-9.58836 -1.78473,-22.0366 6.18087,-28.11226 C 276.90113,375.78709 271.09892,376 416.38348,376 h 134.06563 l -44.64273,-44.75 c -44.06953,-44.17543 -44.66442,-44.82545 -46.33219,-50.62616 -4.02631,-14.00402 4.30423,-27.41803 18.63685,-30.00944 4.76886,-0.86223 12.93796,0.9592 16.56617,3.69368 3.82964,2.8863 142.33588,145.42778 142.2787,146.42385 -0.10801,1.88158 -141.75278,145.90403 -145.1176,147.55357 -4.24689,2.08196 -12.25011,3.00928 -15.84478,1.83589 z"
       id="path352" />
  </g>
</svg>
